<svg width="48" height="48" viewBox="0 0 48 48" fill="none" xmlns="http://www.w3.org/2000/svg">
<rect width="48" height="48" rx="10" fill="#383191"/>
<path d="M16.5 28.5V28.75H14C13.59 28.75 13.25 29.09 13.25 29.5C13.25 29.91 13.59 30.25 14 30.25H16.5V30.5C16.5 32.09 17.41 33 19 33H25C26.59 33 27.5 32.09 27.5 30.5V30.25H34C34.41 30.25 34.75 29.91 34.75 29.5C34.75 29.09 34.41 28.75 34 28.75H27.5V28.5C27.5 26.91 26.59 26 25 26H19C17.41 26 16.5 26.91 16.5 28.5Z" fill="white"/>
<path d="M20.5 17.5V17.75H14C13.59 17.75 13.25 18.09 13.25 18.5C13.25 18.91 13.59 19.25 14 19.25H20.5V19.5C20.5 21.09 21.41 22 23 22H29C30.59 22 31.5 21.09 31.5 19.5V19.25H34C34.41 19.25 34.75 18.91 34.75 18.5C34.75 18.09 34.41 17.75 34 17.75H31.5V17.5C31.5 15.91 30.59 15 29 15H23C21.41 15 20.5 15.91 20.5 17.5Z" fill="white"/>
</svg>
