<svg width="1440" height="140" viewBox="0 0 1440 140" fill="none" xmlns="http://www.w3.org/2000/svg">
<g clip-path="url(#clip0_248_10129)">
<rect width="1440" height="140" fill="#E37C35"/>
<path d="M0 270C0 154.02 94.0202 60 210 60C325.98 60 420 154.02 420 270V544H0V270Z" fill="url(#paint0_linear_248_10129)"/>
<path d="M320 142C320 74.6213 374.621 20 442 20C509.379 20 564 74.6213 564 142V318H320V142Z" fill="url(#paint1_linear_248_10129)"/>
<path d="M420 191C420 94.9025 497.902 17 594 17C690.098 17 768 94.9025 768 191V278H420V191Z" fill="url(#paint2_linear_248_10129)"/>
</g>
<defs>
<linearGradient id="paint0_linear_248_10129" x1="20.3695" y1="544" x2="346.105" y2="128.654" gradientUnits="userSpaceOnUse">
<stop stop-color="#E37C35"/>
<stop offset="1" stop-color="#CC7030"/>
</linearGradient>
<linearGradient id="paint1_linear_248_10129" x1="433.5" y1="194.5" x2="304.377" y2="88.0228" gradientUnits="userSpaceOnUse">
<stop stop-color="#E37C35"/>
<stop offset="1" stop-color="#CC7030"/>
</linearGradient>
<linearGradient id="paint2_linear_248_10129" x1="737.613" y1="23" x2="576.038" y2="347.328" gradientUnits="userSpaceOnUse">
<stop stop-color="#E37C35"/>
<stop offset="1" stop-color="#CC7030"/>
</linearGradient>
<clipPath id="clip0_248_10129">
<rect width="1440" height="140" fill="white"/>
</clipPath>
</defs>
</svg>
