<svg width="21" height="20" viewBox="0 0 21 20" fill="none" xmlns="http://www.w3.org/2000/svg">
<path d="M2.1665 8.12508C1.82484 8.12508 1.5415 7.84175 1.5415 7.50008V5.41675C1.5415 3.00841 3.50817 1.04175 5.9165 1.04175H7.99984C8.3415 1.04175 8.62484 1.32508 8.62484 1.66675C8.62484 2.00841 8.3415 2.29175 7.99984 2.29175H5.9165C4.1915 2.29175 2.7915 3.69175 2.7915 5.41675V7.50008C2.7915 7.84175 2.50817 8.12508 2.1665 8.12508Z" fill="white"/>
<path d="M18.8333 8.12508C18.4917 8.12508 18.2083 7.84175 18.2083 7.50008V5.41675C18.2083 3.69175 16.8083 2.29175 15.0833 2.29175H13C12.6583 2.29175 12.375 2.00841 12.375 1.66675C12.375 1.32508 12.6583 1.04175 13 1.04175H15.0833C17.4917 1.04175 19.4583 3.00841 19.4583 5.41675V7.50008C19.4583 7.84175 19.175 8.12508 18.8333 8.12508Z" fill="white"/>
<path d="M15.0835 18.9583H13.8335C13.4918 18.9583 13.2085 18.6749 13.2085 18.3333C13.2085 17.9916 13.4918 17.7083 13.8335 17.7083H15.0835C16.8085 17.7083 18.2085 16.3083 18.2085 14.5833V13.3333C18.2085 12.9916 18.4918 12.7083 18.8335 12.7083C19.1752 12.7083 19.4585 12.9916 19.4585 13.3333V14.5833C19.4585 16.9916 17.4918 18.9583 15.0835 18.9583Z" fill="white"/>
<path d="M7.99984 18.9583H5.9165C3.50817 18.9583 1.5415 16.9917 1.5415 14.5833V12.5C1.5415 12.1583 1.82484 11.875 2.1665 11.875C2.50817 11.875 2.7915 12.1583 2.7915 12.5V14.5833C2.7915 16.3083 4.1915 17.7083 5.9165 17.7083H7.99984C8.3415 17.7083 8.62484 17.9917 8.62484 18.3333C8.62484 18.675 8.3415 18.9583 7.99984 18.9583Z" fill="white"/>
</svg>
